# xmcd CD database file
#
# Track frame offsets:
#	150
#	46606
#	65454
#	86834
#	121430
#	184264
#	195334
#	219872
#
# Disc length: 3160 seconds
#
# Revision: 0
# Processed by: cddbd v1.5.2PL0 Copyright (c) Steve Scherf et al.
# Submitted via: CDex 1.70beta2
#
DISCID=670c5608
DTITLE=Phillip Greenlief - Russian Notebooks
DYEAR=2000
DGENRE=Jazz
TTITLE0=Cathedrals Of Novgorod
TTITLE1=Wherewithal (for shostokovich)
TTITLE2=Little Vacationing In Chechnaya
TTITLE3=34 Plechanova Ulitza, KB 7
TTITLE4=Portrait Of Anna Ahkmatova
TTITLE5=Notebook Fragment For Svetlana Cherkina
TTITLE6=Raskolnikov's Attic
TTITLE7=Last Night On The Neva
EXTD=YEAR: 2000
EXTT0=
EXTT1=
EXTT2=
EXTT3=
EXTT4=
EXTT5=
EXTT6=
EXTT7=
PLAYORDER=
